<?xml version="1.0" encoding="UTF-8" standalone="no"?>
<!-- Created with Inkscape (http://www.inkscape.org/) -->

<svg
   version="1.1"
   id="svg1"
   width="2717.3333"
   height="2730.6667"
   viewBox="0 0 2717.3333 2730.6667"
   sodipodi:docname="zennodes (1).png"
   xmlns:inkscape="http://www.inkscape.org/namespaces/inkscape"
   xmlns:sodipodi="http://sodipodi.sourceforge.net/DTD/sodipodi-0.dtd"
   xmlns="http://www.w3.org/2000/svg"
   xmlns:svg="http://www.w3.org/2000/svg">
  <defs
     id="defs1" />
  <sodipodi:namedview
     id="namedview1"
     pagecolor="#505050"
     bordercolor="#eeeeee"
     borderopacity="1"
     inkscape:showpageshadow="0"
     inkscape:pageopacity="0"
     inkscape:pagecheckerboard="0"
     inkscape:deskcolor="#505050">
    <inkscape:page
       x="0"
       y="0"
       width="2717.3333"
       height="2730.6667"
       id="page2"
       margin="0"
       bleed="0" />
  </sodipodi:namedview>
  <g
     inkscape:groupmode="layer"
     inkscape:label="Image"
     id="g1">
    <path
       style="fill:#10b77f;fill-opacity:1"
       d="m 703.99998,2281.3063 c -33.8582,-4.5548 -54.34357,-10.8688 -82.54648,-25.4424 -21.68434,-11.2052 -34.64223,-20.3666 -52.09964,-36.835 -40.79673,-38.4855 -63.75429,-83.9783 -71.41383,-141.5137 -6.52383,-49.0045 5.01236,-104.2244 31.09458,-148.8396 16.07283,-27.4935 18.7455,-30.8364 89.62557,-112.1017 12.83689,-14.7178 30.2398,-34.7847 38.67313,-44.5932 8.43334,-9.8084 19.56643,-22.6667 24.74021,-28.5738 9.96863,-11.3816 55.8656,-64.7844 62.60467,-72.8428 6.71113,-8.025 56.27894,-65.8911 74.66451,-87.1642 9.5385,-11.0366 23.92899,-27.8665 31.97886,-37.3999 8.04987,-9.5333 22.74564,-26.6932 32.65727,-38.1331 9.91163,-11.4399 22.82114,-26.4055 28.68781,-33.2568 5.86667,-6.8512 16.96667,-19.7357 24.66667,-28.6322 7.7,-8.8964 28.69999,-33.1942 46.66666,-53.9952 17.96663,-20.801 36.56663,-42.2972 41.33333,-47.7694 4.7667,-5.4722 10.4667,-12.1402 12.6667,-14.8177 4.3447,-5.2878 31.4423,-36.3087 32.666,-37.3956 0.4128,-0.3666 11.3125,-12.9666 24.2216,-28 12.9091,-15.0333 37.4409,-43.5333 54.5152,-63.3333 80.6574,-93.5337 111.4327,-129.494 142.6352,-166.6667 31.8728,-37.97125 44.8103,-49.47359 68.2299,-60.66087 35.5077,-16.96166 70.4576,-18.076 100.0344,-3.1895 24.1738,12.16704 38.7324,29.19362 47.4229,55.46207 9.7518,29.476 6.1784,60.9622 -10.5609,93.055 -9.9752,19.1247 -14.4862,24.8155 -115.1074,145.2128 -8.8313,10.5671 -22.0569,26.5054 -29.3903,35.4185 -7.3333,8.9132 -15.8532,19.1674 -18.9331,22.7872 -16.5716,19.4768 -44.4401,52.8894 -74.4002,89.2011 -27.3187,33.1103 -64.8377,78.0052 -74.9545,89.6899 -18.5468,21.4213 -36.2685,47.6238 -55.2503,81.6905 -23.1033,41.4635 -33.9312,71.0491 -41.9664,114.6667 -1.641,8.9079 -1.9475,17.4682 -1.4318,40 0.6111,26.7051 0.9326,29.6702 4.6987,43.3333 5.0986,18.4969 6.7631,23.0904 12.7767,35.2584 7.5053,15.1863 13.8329,25.1421 23.1156,36.3699 51.2633,62.0051 131.8157,88.8074 274.3453,91.2832 78.0014,1.355 148.6757,-4.7365 212.6667,-18.3299 85.1541,-18.089 145.083,-49.3767 176.3065,-92.046 9.5511,-13.0525 14.3124,-21.9881 26.9271,-50.5356 18.5819,-42.0511 28.5913,-57.5375 52.6095,-81.3962 38.1141,-37.861 89.417,-58.6038 144.9442,-58.6038 35.1418,0 63.2982,6.7154 95.5564,22.7904 58.8668,29.3348 98.0065,83.3913 109.9661,151.8763 4.8992,28.0544 2.0964,80.8709 -6.3734,120.1041 -13.241,61.3336 -40.1941,120.1045 -75.7761,165.2292 -57.447,72.8537 -125.289,120.4329 -216.5066,151.8412 -34.1842,11.7704 -65.4449,19.0803 -104.3204,24.394 -21.0978,2.8837 -27.0503,3.0967 -86,3.0771 -65.7547,-0.022 -84.0832,-0.9695 -144,-7.4447 -63.4146,-6.8531 -100.1886,-13.2636 -174,-30.3318 -49.8373,-11.5245 -107.8891,-32.2321 -156.1744,-55.7088 -106.9182,-51.9846 -178.6069,-119.8982 -223.0091,-211.2657 -22.4793,-46.2561 -31.2099,-74.955 -39.48589,-129.7961 -1.09848,-7.2792 -2.0185,-15.0792 -2.04449,-17.3334 -0.0661,-5.7347 -3.0073,-10.8631 -4.88748,-8.522 -2.55407,3.1801 -8.12162,30.6873 -10.88059,53.7569 -6.38236,53.3671 -3.93058,101.9616 7.36626,146 6.7769,26.4183 11.55635,39.6651 22.36959,62 18.2052,37.603 35.5093,62.0129 64.7461,91.3337 22.6923,22.7575 41.3088,38.033 68.1032,55.8813 18.8439,12.5523 53.9702,31.3742 79.8968,42.8115 6.9667,3.0733 14.1667,6.2746 16,7.114 5.3432,2.4464 -33.3615,2.8655 -283.3333,3.0681 -214.71309,0.1739 -230.48084,0.031 -247.33332,-2.2357 z M 0.43751532,2168.6667 c 0.006,-5.1333 0.24691,-7.0699 0.53555,-4.3036 0.28862998,2.7664 0.28378998,6.9664 -0.0108,9.3334 -0.29455,2.3669 -0.5307,0.1036 -0.52479,-5.0298 z M 1285.3333,1775.2717 c -17.6343,-4.9329 -31.8912,-14.1284 -41.7076,-26.901 -8.0737,-10.505 -12.0235,-18.8707 -15.5983,-33.0373 -2.6564,-10.5271 -2.9413,-14.2094 -2.3208,-30 0.8097,-20.6076 4.2331,-34.5505 12.7114,-51.7722 9.5803,-19.4599 15.6202,-27.5095 64.3115,-85.7102 32.8373,-39.2504 60.4526,-72.7243 103.2705,-125.1794 8.8,-10.7807 20.8,-25.3126 26.6666,-32.2932 14.4784,-17.2275 35.3107,-42.6074 56.6732,-69.045 9.7773,-12.1 29.2472,-35.8 43.2664,-52.6667 14.0192,-16.8667 29.0904,-35.1667 33.4915,-40.6667 42.1417,-52.6638 70.9987,-114.1394 80.6127,-171.7338 2.6113,-15.6429 2.872,-20.8307 2.2116,-44 -0.4705,-16.50852 -1.5335,-29.73342 -2.8613,-35.5995 -8.3071,-36.69852 -25.6298,-68.38996 -51.4065,-94.04697 -18.0428,-17.95906 -33.2909,-28.91821 -56.6504,-40.716 -57.0129,-28.79459 -125.662,-39.0034 -252.0038,-37.47553 -70.9908,0.8585 -110.9724,4.0275 -162.7683,12.90125 -57.8449,9.91007 -112.176,28.25771 -144.56506,48.8197 -38.59281,24.50042 -58.06042,47.95637 -77.89288,93.85088 -20.41209,47.23577 -35.81024,70.35207 -63.0335,94.62797 -12.10617,10.7956 -20.50718,16.3227 -40.14968,26.4153 -22.61994,11.6224 -30.02974,14.0029 -67.35899,21.6402 -11.77419,2.4089 -45.90265,1.6097 -61.83059,-1.448 -45.05795,-8.6496 -72.07488,-21.4824 -104.1627,-49.4766 -17.72499,-15.4636 -39.06012,-43.7351 -49.47956,-65.56592 -5.96844,-12.50511 -13.45392,-36.14183 -17.00332,-53.69098 -3.32636,-16.44636 -3.31229,-65.01482 0.0254,-87.83531 10.2134,-69.83032 28.1041,-120.77644 60.6352,-172.66667 21.45995,-34.23068 47.25986,-64.00868 80.25059,-92.62444 73.81388,-64.02527 172.22759,-102.79281 282.59985,-111.32293 50.52759,-3.90503 138.00154,-0.0649 211.76754,9.29663 159.7723,20.27645 299.1617,66.68695 403.6325,134.3917 46.9298,30.41396 93.0465,72.65945 123.9295,113.52641 39.6585,52.47942 67.7592,118.03375 76.0444,177.3993 1.1769,8.43334 2.4858,16.48107 2.9085,17.88386 3.9576,13.13391 10.6532,-52.28582 9.2677,-90.55053 -2.6853,-74.1608 -19.5209,-129.46074 -56.2201,-184.66667 -32.812,-49.3584 -78.941,-91.32703 -140.8773,-128.17163 -16.1724,-9.62065 -60.0575,-31.40758 -76.386,-37.92212 -5.1333,-2.04804 -14.1333,-5.69597 -20,-8.1065 l -10.6667,-4.38278 288,0.29151 288,0.29152 14.4189,3.06462 c 17.3837,3.69479 45.8259,13.38805 59.7168,20.35184 24.8879,12.47681 53.6867,35.67067 71.7696,57.80141 23.9942,29.36538 39.1536,61.75254 47.7597,102.03617 3.2119,15.03398 3.5749,19.47217 3.5513,43.41263 -0.024,24.10635 -0.3837,28.32892 -3.7489,43.97967 -10.7135,49.82634 -26.5722,80.64794 -62.6877,121.83412 -6.6622,7.59759 -18.413,21.17151 -26.113,30.16428 -7.7,8.99278 -23.3,27.02246 -34.6667,40.06596 -11.3667,13.04351 -22.4587,25.86958 -24.6489,28.50239 -2.1903,2.63281 -12.3203,14.38692 -22.5111,26.12026 -10.1909,11.73333 -25.3041,29.1333 -33.5848,38.6667 -8.2808,9.5333 -20.0508,23.1309 -26.1556,30.2169 -6.1048,7.086 -20.0996,23.2256 -31.0996,35.8656 -11,12.6401 -23.9,27.6086 -28.6667,33.2635 -10.0994,11.9813 -30.4572,35.6196 -65.9652,76.5947 -13.9524,16.1007 -30.4681,35.3656 -36.7014,42.8109 -6.2334,7.4453 -20.3334,23.907 -31.3334,36.5816 -11,12.6745 -22.4,25.9201 -25.3333,29.4345 -6.3428,7.5994 -51.2419,59.9496 -67.3333,78.5075 -6.2334,7.1888 -20.3172,23.4927 -31.2974,36.231 -10.9803,12.7382 -21.8647,25.2604 -24.1876,27.8271 -2.323,2.5667 -10.1391,11.6299 -17.3693,20.1405 -7.2301,8.5107 -22.1457,25.8712 -33.1457,38.579 -11,12.7078 -25.3504,29.4446 -31.8898,37.1928 -6.5393,7.7483 -15.8673,18.5877 -20.7289,24.0877 -4.8615,5.5 -18.7011,21.7 -30.7547,36 -12.0536,14.3 -24.1132,28.4 -26.7992,31.3333 -2.6859,2.9334 -10.1481,11.6334 -16.5827,19.3334 -16.701,19.9852 -64.667,75.6555 -70.7652,82.1315 -13.1017,13.913 -34.0516,26.7599 -54.4794,33.4079 -13.6768,4.4508 -42.1438,5.7155 -54,2.3989 z"
       id="path1" />
  </g>
</svg>
